<svg width="24" height="24" viewBox="0 0 24 24" fill="none" xmlns="http://www.w3.org/2000/svg">
<circle cx="12" cy="12" r="12" fill="#AACC3B"/>
<g clip-path="url(#clip0_5_7633)">
<path d="M19.1467 6.79607L10.078 16.2959C10.017 16.3601 9.94458 16.411 9.86479 16.4457C9.785 16.4804 9.69945 16.4983 9.61305 16.4983C9.52666 16.4983 9.44111 16.4804 9.36132 16.4457C9.28153 16.411 9.20907 16.3601 9.1481 16.2959L5.6411 12.6185C5.58013 12.5544 5.50767 12.5035 5.42788 12.4688C5.34809 12.4341 5.26254 12.4162 5.17615 12.4162C5.08975 12.4162 5.0042 12.4341 4.92441 12.4688C4.84462 12.5035 4.77217 12.5544 4.71119 12.6185C4.64998 12.6824 4.60141 12.7583 4.56827 12.8419C4.53513 12.9255 4.51807 13.0151 4.51807 13.1056C4.51807 13.1961 4.53513 13.2857 4.56827 13.3693C4.60141 13.4529 4.64998 13.5288 4.71119 13.5927L8.21951 17.2674C8.5896 17.6544 9.09114 17.8717 9.61404 17.8717C10.1369 17.8717 10.6385 17.6544 11.0086 17.2674L20.0766 7.76957C20.1377 7.70571 20.1862 7.62984 20.2193 7.54632C20.2524 7.4628 20.2694 7.37325 20.2694 7.28282C20.2694 7.19239 20.2524 7.10285 20.2193 7.01933C20.1862 6.9358 20.1377 6.85994 20.0766 6.79607C20.0157 6.73195 19.9432 6.68106 19.8634 6.64634C19.7836 6.61162 19.6981 6.59375 19.6117 6.59375C19.5253 6.59375 19.4397 6.61162 19.3599 6.64634C19.2802 6.68106 19.2077 6.73195 19.1467 6.79607Z" fill="#FDFDFD"/>
</g>
<defs>
<clipPath id="clip0_5_7633">
<rect width="15.75" height="16.5" fill="white" transform="translate(4.5 3.75)"/>
</clipPath>
</defs>
</svg>
